<?xml version="1.0" encoding="UTF-8"?>
<!DOCTYPE svg PUBLIC "-//W3C//DTD SVG 1.1//EN" "http://www.w3.org/Graphics/SVG/1.1/DTD/svg11.dtd">
<!-- Creator: CorelDRAW -->
<svg xmlns="http://www.w3.org/2000/svg" xml:space="preserve" width="1.70666in" height="1.70666in" version="1.1" style="shape-rendering:geometricPrecision; text-rendering:geometricPrecision; image-rendering:optimizeQuality; fill-rule:evenodd; clip-rule:evenodd"
viewBox="0 0 1707 1707"
 xmlns:xlink="http://www.w3.org/1999/xlink">
 <defs>
  <style type="text/css">
   <![CDATA[
    .fil0 {fill:#6b6b6b}
   ]]>
  </style>
 </defs>
 <g id="Layer_x0020_1">
  <metadata id="CorelCorpID_0Corel-Layer"/>
  <g id="_533777640">
   <g>
    <g>
     <path class="fil0" d="M1468 746l-633 0c-13,0 -25,-11 -25,-24 0,-14 12,-25 25,-25l583 0 -162 -202c-7,-9 -7,-22 0,-30l161 -192 -582 0c-13,0 -25,-11 -25,-25 0,-14 12,-25 25,-25l633 0c10,0 18,6 22,14 5,9 3,18 -2,27l-181 215 182 227c6,7 7,17 3,27 -6,8 -14,13 -24,13z"/>
    </g>
    <g>
     <path class="fil0" d="M835 1376c-13,0 -25,-11 -25,-25l0 -1180c0,-14 12,-25 25,-25 14,0 25,11 25,25l0 1182c-1,14 -12,23 -25,23z"/>
    </g>
    <g>
     <path class="fil0" d="M835 194c-54,0 -97,-43 -97,-97 0,-54 43,-97 97,-97 55,0 98,43 98,97 0,54 -45,97 -98,97zm0 -145c-26,0 -48,22 -48,48 0,26 22,49 48,49 27,0 49,-23 49,-49 0,-26 -22,-48 -49,-48z"/>
    </g>
    <g>
     <path class="fil0" d="M1023 1532c-14,0 -25,-11 -25,-25l0 -131 -326 0 0 131c0,14 -11,25 -25,25 -14,0 -25,-11 -25,-25l0 -154c0,-14 11,-25 25,-25l376 0c14,0 25,11 25,25l0 155c0,13 -11,24 -25,24z"/>
    </g>
    <g>
     <path class="fil0" d="M1279 1707l-888 0c-8,0 -16,-4 -20,-13 -5,-8 -5,-16 0,-25l106 -175c5,-7 13,-11 21,-11l673 0c9,0 17,4 21,11l108 175c4,7 4,17 0,25 -4,9 -12,13 -21,13zm-845 -49l801 0 -78 -126 -645 0 -78 126z"/>
    </g>
    <g>
     <path class="fil0" d="M1152 418l-317 0c-13,0 -25,-11 -25,-25 0,-14 12,-25 25,-25l317 0c14,0 25,11 25,25 0,14 -11,25 -25,25z"/>
    </g>
    <g>
     <path class="fil0" d="M1434 1707l-1197 0c-13,0 -25,-11 -25,-25 0,-14 12,-25 25,-25l1197 0c13,0 24,11 24,25 0,14 -11,25 -24,25z"/>
    </g>
   </g>
  </g>
 </g>
</svg>
