<?xml version="1.0" encoding="utf-8"?>
<!-- Generator: Adobe Illustrator 16.0.0, SVG Export Plug-In . SVG Version: 6.00 Build 0)  -->
<!DOCTYPE svg PUBLIC "-//W3C//DTD SVG 1.1//EN" "http://www.w3.org/Graphics/SVG/1.1/DTD/svg11.dtd">
<svg version="1.1" id="Calque_1" xmlns="http://www.w3.org/2000/svg" xmlns:xlink="http://www.w3.org/1999/xlink" x="0px" y="0px"
	 width="512px" height="512px" viewBox="0 0 512 512" enable-background="new 0 0 512 512" xml:space="preserve">
<g>
	<g>
		<path fill="#6b6b6b" d="M454.405,139.218h-282c-5.523,0-10-4.477-10-10s4.477-10,10-10h282c5.522,0,10,4.477,10,10
			S459.927,139.218,454.405,139.218z"/>
	</g>
	<g>
		<path fill="#6b6b6b" d="M89.093,296.647c-22.882,0-41.498-18.616-41.498-41.498c0-22.882,18.616-41.498,41.498-41.498
			s41.498,18.616,41.498,41.498C130.591,278.031,111.975,296.647,89.093,296.647z M89.093,233.651
			c-11.854,0-21.498,9.644-21.498,21.498c0,11.854,9.644,21.498,21.498,21.498s21.498-9.644,21.498-21.498
			C110.591,243.295,100.947,233.651,89.093,233.651z"/>
	</g>
	<g>
		<path fill="#6b6b6b" d="M454.405,265.149h-282c-5.523,0-10-4.478-10-10c0-5.523,4.477-10,10-10h282c5.522,0,10,4.477,10,10
			C464.405,260.671,459.927,265.149,454.405,265.149z"/>
	</g>
	<g>
		<path fill="#6b6b6b" d="M89.093,422.576c-22.882,0-41.498-18.616-41.498-41.498S66.21,339.58,89.093,339.58s41.498,18.616,41.498,41.498
			S111.975,422.576,89.093,422.576z M89.093,359.58c-11.854,0-21.498,9.644-21.498,21.498s9.644,21.498,21.498,21.498
			s21.498-9.644,21.498-21.498S100.947,359.58,89.093,359.58z"/>
	</g>
	<g>
		<path fill="#6b6b6b" d="M454.405,391.078h-282c-5.523,0-10-4.478-10-10s4.477-10,10-10h282c5.522,0,10,4.478,10,10
			S459.927,391.078,454.405,391.078z"/>
	</g>
	<g>
		<path fill="#6b6b6b" d="M71.912,169.012L71.912,169.012c-2.652,0-5.196-1.054-7.071-2.929l-25.227-25.228c-3.905-3.905-3.905-10.237,0-14.142
			c3.905-3.904,10.236-3.905,14.142,0l18.156,18.156l52.516-52.517c3.905-3.904,10.237-3.905,14.142,0s3.905,10.237,0,14.143
			l-59.587,59.588C77.108,167.958,74.565,169.012,71.912,169.012z"/>
	</g>
</g>
</svg>
